<svg xmlns="http://www.w3.org/2000/svg" xmlns:xlink="http://www.w3.org/1999/xlink" version="1.1" x="0px" y="0px" viewBox="0 0 100 125" enable-background="new 0 0 100 100" xml:space="preserve"><g><g><path fill="none" stroke="#000000" stroke-width="5" stroke-miterlimit="10" d="M20.518,53.245    c-9.798-9.798-9.798-25.655,0-35.452c9.797-9.798,25.654-9.798,35.452,0c9.797,9.797,9.797,25.654,0,35.452    C46.172,63.043,30.315,63.043,20.518,53.245z"/><path d="M90.132,79.502c0.608,0.609-0.667,2.873-2.851,5.058l0,0c-2.179,2.179-4.445,3.455-5.053,2.846l-27.952-30.21    c-0.61-0.61-0.464-1.746,1.716-3.927l0,0c2.184-2.184,3.318-2.328,3.929-1.718L90.132,79.502z"/></g><path fill="none" stroke="#000000" stroke-width="4" stroke-linecap="round" stroke-miterlimit="10" d="M21.776,35.519   c0-9.526,7.708-17.234,17.235-17.234"/></g><text x="0" y="115" fill="#000000" font-size="5px" font-weight="bold" font-family="'Helvetica Neue', Helvetica, Arial-Unicode, Arial, Sans-serif">Created by Michael Finlay</text><text x="0" y="120" fill="#000000" font-size="5px" font-weight="bold" font-family="'Helvetica Neue', Helvetica, Arial-Unicode, Arial, Sans-serif">from the Noun Project</text></svg>